<?xml version="1.0" standalone="no"?>
<!DOCTYPE svg PUBLIC "-//W3C//DTD SVG 20010904//EN"
 "http://www.w3.org/TR/2001/REC-SVG-20010904/DTD/svg10.dtd">
<svg version="1.0" xmlns="http://www.w3.org/2000/svg"
 width="100%" height="100%" viewBox="0 0 300.000000 300.000000"
 preserveAspectRatio="xMidYMid meet">
<metadata>
Created by potrace 1.10, written by Peter Selinger 2001-2011
</metadata>
<g transform="translate(0.000000,300.000000) scale(0.100000,-0.100000)"
fill="#ed002e" stroke="none">
<path d="M1285 2979 c-634 -93 -1147 -593 -1255 -1224 -156 -915 543 -1745
1470 -1745 715 0 1310 487 1466 1200 27 122 27 458 0 580 -135 618 -605 1076
-1211 1180 -125 21 -354 26 -470 9z m346 -9 c348 -34 642 -168 893 -409 133
-128 232 -266 310 -431 234 -496 176 -1076 -153 -1515 -98 -131 -265 -284
-406 -373 -73 -45 -228 -117 -318 -146 -358 -117 -742 -92 -1087 70 -165 78
-302 177 -431 310 -125 131 -199 237 -273 394 -234 496 -176 1076 153 1515 98
131 265 284 406 373 73 45 228 117 318 146 193 63 392 85 588 66z"/>
</g>
</svg>
