<svg version="1" xmlns="http://www.w3.org/2000/svg" viewBox="0 0 300.000000 300.000000"><path d="M128.5 2.1C65.1 11.4 13.8 61.4 3 124.5-12.6 216 57.3 299 150 299c71.5 0 131-48.7 146.6-120 2.7-12.2 2.7-45.8 0-58C283.1 59.2 236.1 13.4 175.5 3c-12.5-2.1-35.4-2.6-47-.9zm34.6.9c34.8 3.4 64.2 16.8 89.3 40.9 13.3 12.8 23.2 26.6 31 43.1 23.4 49.6 17.6 107.6-15.3 151.5-9.8 13.1-26.5 28.4-40.6 37.3-7.3 4.5-22.8 11.7-31.8 14.6-35.8 11.7-74.2 9.2-108.7-7-16.5-7.8-30.2-17.7-43.1-31C31.4 239.3 24 228.7 16.6 213-6.8 163.4-1 105.4 31.9 61.5c9.8-13.1 26.5-28.4 40.6-37.3 7.3-4.5 22.8-11.7 31.8-14.6 19.3-6.3 39.2-8.5 58.8-6.6z" fill="#ed002e"/></svg>